<?xml version="1.0" encoding="utf-8"?>
<!-- Generator: Adobe Illustrator 28.1.0, SVG Export Plug-In . SVG Version: 6.00 Build 0)  -->
<svg version="1.1" id="Layer_1" xmlns="http://www.w3.org/2000/svg" xmlns:xlink="http://www.w3.org/1999/xlink" x="0px" y="0px"
	 viewBox="0 0 500 500" style="enable-background:new 0 0 500 500;" xml:space="preserve">
<style type="text/css">
	.st0{fill:#CCA22D;}
	.st1{fill:#8B469B;}
	.st2{fill:#296BB5;}
	.st3{fill:#C7268F;}
	.st4{fill:#CA4499;}
	.st5{fill:#C0272F;}
	.st6{fill:#CC4527;}
	.st7{fill:#CC4528;}
	.st8{fill:#41BCA0;}
	.st9{fill:#5F4EA0;}
	.st10{fill:#34B44A;}
	.st11{fill:#FFCB0C;}
	.st12{fill:#9752A0;}
	.st13{fill:#427DC0;}
	.st14{fill:#DD4598;}
	.st15{fill:#C7258F;}
	.st16{fill:#EE313B;}
	.st17{fill:#F05423;}
	.st18{fill:#71C8B7;}
	.st19{fill:#685CA8;}
	.st20{fill:#66BC46;}
</style>
<path class="st0" d="M491.75,75.67c-22.2,0-44.4,0-66.76,0c0-22.3,0-44.46,0-66.93c22.25,0,44.51,0,66.76,0
	C491.75,31.05,491.75,53.36,491.75,75.67z M435.48,19.4c0,15.26,0,30.35,0,45.61c15.26,0,30.34,0,45.61,0c0-15.26,0-30.35,0-45.61
	C465.83,19.4,450.74,19.4,435.48,19.4z"/>
<path class="st1" d="M341.4,491.75c0-22.2,0-44.4,0-66.76c22.3,0,44.45,0,66.93,0c0,22.25,0,44.51,0,66.76
	C386.03,491.75,363.72,491.75,341.4,491.75z M397.67,481.08c0-15.26,0-30.34,0-45.59c-15.26,0-30.34,0-45.59,0
	c0,15.26,0,30.34,0,45.59C367.33,481.08,382.41,481.08,397.67,481.08z"/>
<path class="st1" d="M258.49,491.75c0-22.2,0-44.4,0-66.76c22.3,0,44.45,0,66.93,0c0,22.25,0,44.51,0,66.76
	C303.11,491.75,280.8,491.75,258.49,491.75z M314.75,435.49c-15.25,0-30.33,0-45.59,0c0,15.25,0,30.33,0,45.59
	c15.25,0,30.33,0,45.59,0C314.75,465.83,314.75,450.75,314.75,435.49z"/>
<path class="st1" d="M175.08,491.75c0-22.2,0-44.4,0-66.76c22.3,0,44.45,0,66.93,0c0,22.25,0,44.51,0,66.76
	C219.7,491.75,197.39,491.75,175.08,491.75z M185.75,481.08c15.26,0,30.34,0,45.59,0c0-15.26,0-30.34,0-45.59
	c-15.26,0-30.34,0-45.59,0C185.75,450.75,185.75,465.83,185.75,481.08z"/>
<path class="st2" d="M91.66,491.75c0-22.21,0-44.42,0-66.77c22.32,0,44.43,0,66.93,0c0,22.23,0,44.5,0,66.77
	C136.28,491.75,113.97,491.75,91.66,491.75z M102.33,435.49c0,15.26,0,30.34,0,45.6c15.26,0,30.34,0,45.59,0c0-15.26,0-30.34,0-45.6
	C132.67,435.49,117.58,435.49,102.33,435.49z"/>
<path class="st3" d="M491.75,408.33c-22.2,0-44.41,0-66.76,0c0-22.16,0-44.1,0-66.43c22.23,0,44.49,0,66.76,0
	C491.75,364.05,491.75,386.19,491.75,408.33z M481.08,352.57c-15.25,0-30.33,0-45.59,0c0,15.09,0,30,0,45.1c15.25,0,30.33,0,45.59,0
	C481.08,382.58,481.08,367.66,481.08,352.57z"/>
<path class="st4" d="M424.82,491.75c0-22.2,0-44.39,0-66.93c22.42,0,44.68,0,66.93,0c0,21.73,0.01,43.46-0.07,65.18
	c0,0.59-1.09,1.67-1.68,1.68C468.27,491.76,446.55,491.75,424.82,491.75z M491.07,425.5c-21.92,0-43.66,0-65.57,0
	c0,21.92,0,43.66,0,65.57c21.92,0,43.66,0,65.57,0C491.07,469.14,491.07,447.41,491.07,425.5z"/>
<path class="st4" d="M491.75,242c-22.19,0-44.38,0-66.75,0c0-22.3,0-44.45,0-66.93c22.25,0,44.5,0,66.75,0
	C491.75,197.38,491.75,219.69,491.75,242z M425.5,241.32c21.91,0,43.65,0,65.57,0c0-21.91,0-43.65,0-65.57c-21.91,0-43.65,0-65.57,0
	C425.5,197.66,425.5,219.4,425.5,241.32z"/>
<path class="st4" d="M491.75,325.42c-22.19,0-44.38,0-66.75,0c0-22.3,0-44.45,0-66.93c22.25,0,44.5,0,66.75,0
	C491.75,280.8,491.75,303.11,491.75,325.42z M491.07,324.74c0-21.91,0-43.65,0-65.57c-21.91,0-43.64,0-65.57,0
	c0,21.91,0,43.65,0,65.57C447.41,324.74,469.15,324.74,491.07,324.74z"/>
<path class="st5" d="M175.32,8.85c22.19,0,44.22,0,66.44,0c0,22.18,0,44.33,0,66.62c-22.07,0-44.17,0-66.44,0
	C175.32,53.38,175.32,31.23,175.32,8.85z M231.35,65.01c0-15.26,0-30.35,0-45.61c-15.26,0-30.35,0-45.61,0c0,15.26,0,30.35,0,45.61
	C201,65.01,216.09,65.01,231.35,65.01z"/>
<path class="st0" d="M408.18,75.63c-22.27,0-44.33,0-66.58,0c0-22.19,0-44.36,0-66.71c22.08,0,44.25,0,66.58,0
	C408.18,31.07,408.18,53.24,408.18,75.63z M352.14,19.38c0,15.42,0,30.51,0,45.56c15.33,0,30.42,0,45.47,0c0-15.33,0-30.42,0-45.56
	C382.33,19.38,367.3,19.38,352.14,19.38z"/>
<path class="st6" d="M75.5,158.97c-22.28,0-44.38,0-66.61,0c0-22.21,0-44.31,0-66.61c22.11,0,44.28,0,66.61,0
	C75.5,114.45,75.5,136.62,75.5,158.97z M19.42,148.42c15.25,0,30.34,0,45.6,0c0-15.25,0-30.34,0-45.6c-15.25,0-30.34,0-45.6,0
	C19.42,118.08,19.42,133.16,19.42,148.42z"/>
<path class="st7" d="M158.47,92.34c0,22.28,0,44.39,0,66.61c-22.21,0-44.31,0-66.61,0c0-22.12,0-44.28,0-66.61
	C113.96,92.34,136.13,92.34,158.47,92.34z M102.33,102.82c0,15.25,0,30.34,0,45.6c15.25,0,30.34,0,45.6,0c0-15.25,0-30.34,0-45.6
	C132.67,102.82,117.59,102.82,102.33,102.82z"/>
<path class="st5" d="M175.19,158.85c0-22.22,0-44.26,0-66.46c22.2,0,44.35,0,66.63,0c0,22.11,0,44.2,0,66.46
	C219.7,158.85,197.55,158.85,175.19,158.85z M231.35,148.43c0-15.26,0-30.35,0-45.61c-15.26,0-30.35,0-45.61,0
	c0,15.26,0,30.35,0,45.61C201,148.43,216.09,148.43,231.35,148.43z"/>
<path class="st5" d="M325.18,158.98c-22.21,0-44.25,0-66.45,0c0-22.2,0-44.35,0-66.63c22.1,0,44.19,0,66.45,0
	C325.18,114.46,325.18,136.61,325.18,158.98z M269.16,102.82c0,15.26,0,30.35,0,45.6c15.26,0,30.35,0,45.6,0c0-15.26,0-30.35,0-45.6
	C299.49,102.82,284.4,102.82,269.16,102.82z"/>
<path class="st0" d="M341.52,158.92c0-22.29,0-44.4,0-66.63c22.22,0,44.33,0,66.63,0c0,22.12,0,44.29,0,66.63
	C386.04,158.92,363.87,158.92,341.52,158.92z M397.67,148.43c0-15.26,0-30.35,0-45.61c-15.26,0-30.35,0-45.61,0
	c0,15.26,0,30.35,0,45.61C367.33,148.43,382.42,148.43,397.67,148.43z"/>
<path class="st8" d="M408.14,325.3c-22.26,0-44.35,0-66.59,0c0-22.21,0-44.3,0-66.6c22.1,0,44.25,0,66.59,0
	C408.14,280.78,408.14,302.93,408.14,325.3z M352.07,269.15c0,15.26,0,30.34,0,45.6c15.26,0,30.34,0,45.6,0c0-15.26,0-30.34,0-45.6
	C382.41,269.15,367.32,269.15,352.07,269.15z"/>
<path class="st9" d="M258.6,325.24c0-22.28,0-44.39,0-66.63c22.21,0,44.32,0,66.63,0c0,22.12,0,44.29,0,66.63
	C303.13,325.24,280.96,325.24,258.6,325.24z M314.75,314.75c0-15.26,0-30.34,0-45.59c-15.26,0-30.34,0-45.59,0
	c0,15.26,0,30.34,0,45.59C284.42,314.75,299.5,314.75,314.75,314.75z"/>
<path class="st10" d="M91.8,325.24c0-22.29,0-44.39,0-66.61c22.21,0,44.31,0,66.59,0c0,22.12,0,44.29,0,66.61
	C136.29,325.24,114.13,325.24,91.8,325.24z M102.33,269.16c0,15.26,0,30.34,0,45.59c15.26,0,30.34,0,45.59,0
	c0-15.26,0-30.34,0-45.59C132.66,269.16,117.58,269.16,102.33,269.16z"/>
<path class="st2" d="M8.96,258.56c22.23,0,44.28,0,66.52,0c0,22.22,0,44.38,0,66.69c-22.12,0-44.22,0-66.52,0
	C8.96,303.12,8.96,280.96,8.96,258.56z M19.42,314.75c15.25,0,30.33,0,45.59,0c0-15.25,0-30.33,0-45.59c-15.25,0-30.33,0-45.59,0
	C19.42,284.41,19.42,299.49,19.42,314.75z"/>
<path class="st8" d="M341.52,241.82c0-22.27,0-44.37,0-66.6c22.21,0,44.3,0,66.6,0c0,22.11,0,44.26,0,66.6
	C386.04,241.82,363.89,241.82,341.52,241.82z M352.07,185.74c0,15.26,0,30.34,0,45.6c15.26,0,30.34,0,45.6,0c0-15.26,0-30.34,0-45.6
	C382.41,185.74,367.33,185.74,352.07,185.74z"/>
<path class="st9" d="M325.31,175.25c0,22.28,0,44.39,0,66.63c-22.21,0-44.32,0-66.63,0c0-22.12,0-44.29,0-66.63
	C280.78,175.25,302.95,175.25,325.31,175.25z M269.16,231.33c15.25,0,30.33,0,45.59,0c0-15.25,0-30.33,0-45.59
	c-15.25,0-30.33,0-45.59,0C269.16,200.99,269.16,216.07,269.16,231.33z"/>
<path class="st5" d="M241.9,175.31c0,22.21,0,44.24,0,66.45c-22.19,0-44.34,0-66.63,0c0-22.09,0-44.18,0-66.45
	C197.38,175.31,219.53,175.31,241.9,175.31z M185.74,231.34c15.26,0,30.35,0,45.6,0c0-15.26,0-30.35,0-45.61
	c-15.26,0-30.35,0-45.6,0C185.74,201,185.74,216.08,185.74,231.34z"/>
<path class="st6" d="M91.83,175.13c22.26,0,44.31,0,66.55,0c0,22.18,0,44.35,0,66.69c-22.07,0-44.24,0-66.55,0
	C91.83,219.68,91.83,197.51,91.83,175.13z M102.33,231.34c15.26,0,30.34,0,45.6,0c0-15.26,0-30.34,0-45.6c-15.26,0-30.34,0-45.6,0
	C102.33,200.99,102.33,216.08,102.33,231.34z"/>
<path class="st7" d="M75.56,175.26c0,22.26,0,44.37,0,66.6c-22.2,0-44.31,0-66.61,0c0-22.1,0-44.27,0-66.6
	C31.04,175.26,53.2,175.26,75.56,175.26z M19.42,231.34c15.26,0,30.34,0,45.59,0c0-15.26,0-30.34,0-45.6c-15.26,0-30.34,0-45.59,0
	C19.42,201,19.42,216.08,19.42,231.34z"/>
<path class="st9" d="M325.3,408.23c-22.25,0-44.36,0-66.64,0c0-22.03,0-44.03,0-66.18c22.18,0,44.34,0,66.64,0
	C325.3,364.07,325.3,386.01,325.3,408.23z M314.72,397.7c0-15.2,0-30.11,0-45.1c-15.29,0-30.37,0-45.52,0c0,15.13,0,30.04,0,45.1
	C284.43,397.7,299.45,397.7,314.72,397.7z"/>
<path class="st1" d="M241.91,342.09c0,22.07,0,44.01,0,66.09c-22.26,0-44.42,0-66.71,0c0-22.02,0-43.96,0-66.09
	C197.34,342.09,219.5,342.09,241.91,342.09z M231.34,397.66c0-15.08,0-30,0-45.09c-15.25,0-30.33,0-45.59,0c0,15.08,0,30,0,45.09
	C201,397.66,216.08,397.66,231.34,397.66z"/>
<path class="st2" d="M158.39,408.26c-22.23,0-44.28,0-66.52,0c0-22.05,0-44.05,0-66.19c22.12,0,44.22,0,66.52,0
	C158.39,364.03,158.39,386.03,158.39,408.26z M147.93,397.67c0-15.09,0-30.01,0-45.09c-15.26,0-30.34,0-45.59,0
	c0,15.09,0,30.01,0,45.09C117.59,397.67,132.67,397.67,147.93,397.67z"/>
<path class="st2" d="M75.46,408.24c-22.1,1.17-44.55,0.07-66.69,0.07c0-22.08,0-44.16,0-66.23c22.28,0,44.38,0,66.69,0
	C75.46,364,75.46,386,75.46,408.24z M65.01,397.67c0-15.09,0-30,0-45.1c-15.26,0-30.34,0-45.6,0c0,15.09,0,30,0,45.1
	C34.67,397.67,49.75,397.67,65.01,397.67z"/>
<path class="st11" d="M435.48,19.4c15.26,0,30.35,0,45.61,0c0,15.26,0,30.35,0,45.61c-15.26,0-30.35,0-45.61,0
	C435.48,49.75,435.48,34.66,435.48,19.4z"/>
<path class="st12" d="M397.67,481.08c-15.26,0-30.34,0-45.59,0c0-15.26,0-30.34,0-45.59c15.26,0,30.34,0,45.59,0
	C397.67,450.74,397.67,465.82,397.67,481.08z"/>
<path class="st12" d="M314.75,435.49c0,15.26,0,30.34,0,45.59c-15.26,0-30.34,0-45.59,0c0-15.26,0-30.34,0-45.59
	C284.42,435.49,299.5,435.49,314.75,435.49z"/>
<path class="st12" d="M185.75,481.08c0-15.25,0-30.33,0-45.59c15.25,0,30.33,0,45.59,0c0,15.25,0,30.33,0,45.59
	C216.08,481.08,201.01,481.08,185.75,481.08z"/>
<path class="st13" d="M102.33,435.49c15.25,0,30.33,0,45.59,0c0,15.25,0,30.33,0,45.6c-15.25,0-30.33,0-45.59,0
	C102.33,465.83,102.33,450.75,102.33,435.49z"/>
<path class="st14" d="M481.08,352.57c0,15.09,0,30.01,0,45.1c-15.26,0-30.34,0-45.59,0c0-15.09,0-30.01,0-45.1
	C450.75,352.57,465.83,352.57,481.08,352.57z"/>
<path class="st15" d="M491.07,425.5c0,21.91,0,43.64,0,65.57c-21.91,0-43.64,0-65.57,0c0-21.91,0-43.64,0-65.57
	C447.41,425.5,469.15,425.5,491.07,425.5z M435.49,435.49c0,15.26,0,30.34,0,45.59c15.26,0,30.34,0,45.59,0c0-15.26,0-30.34,0-45.59
	C465.82,435.49,450.74,435.49,435.49,435.49z"/>
<path class="st15" d="M425.5,241.32c0-21.92,0-43.66,0-65.57c21.92,0,43.66,0,65.57,0c0,21.92,0,43.66,0,65.57
	C469.15,241.32,447.41,241.32,425.5,241.32z M435.49,231.33c15.25,0,30.33,0,45.59,0c0-15.25,0-30.33,0-45.59
	c-15.25,0-30.33,0-45.59,0C435.49,200.99,435.49,216.07,435.49,231.33z"/>
<path class="st15" d="M491.07,324.74c-21.92,0-43.66,0-65.57,0c0-21.92,0-43.66,0-65.57c21.92,0,43.66,0,65.57,0
	C491.07,281.09,491.07,302.83,491.07,324.74z M481.09,269.23c-15.43,0-30.51,0-45.53,0c0,15.34,0,30.42,0,45.44
	c15.34,0,30.42,0,45.53,0C481.09,299.4,481.09,284.37,481.09,269.23z"/>
<path class="st16" d="M231.35,65.01c-15.26,0-30.35,0-45.61,0c0-15.26,0-30.35,0-45.61c15.26,0,30.35,0,45.61,0
	C231.35,34.66,231.35,49.75,231.35,65.01z"/>
<path class="st11" d="M352.14,19.38c15.17,0,30.2,0,45.47,0c0,15.14,0,30.22,0,45.56c-15.05,0-30.14,0-45.47,0
	C352.14,49.89,352.14,34.81,352.14,19.38z"/>
<path class="st17" d="M19.42,148.42c0-15.26,0-30.34,0-45.6c15.26,0,30.34,0,45.6,0c0,15.26,0,30.34,0,45.6
	C49.75,148.42,34.67,148.42,19.42,148.42z"/>
<path class="st17" d="M102.33,102.82c15.26,0,30.34,0,45.6,0c0,15.26,0,30.34,0,45.6c-15.26,0-30.34,0-45.6,0
	C102.33,133.16,102.33,118.08,102.33,102.82z"/>
<path class="st16" d="M231.35,148.43c-15.26,0-30.35,0-45.61,0c0-15.26,0-30.35,0-45.61c15.26,0,30.35,0,45.61,0
	C231.35,118.08,231.35,133.16,231.35,148.43z"/>
<path class="st16" d="M269.16,102.82c15.25,0,30.33,0,45.6,0c0,15.25,0,30.34,0,45.6c-15.25,0-30.33,0-45.6,0
	C269.16,133.17,269.16,118.09,269.16,102.82z"/>
<path class="st11" d="M397.67,148.43c-15.26,0-30.35,0-45.61,0c0-15.26,0-30.35,0-45.61c15.26,0,30.35,0,45.61,0
	C397.67,118.08,397.67,133.16,397.67,148.43z"/>
<path class="st18" d="M352.07,269.15c15.25,0,30.33,0,45.6,0c0,15.25,0,30.34,0,45.6c-15.25,0-30.33,0-45.6,0
	C352.07,299.5,352.07,284.42,352.07,269.15z"/>
<path class="st19" d="M314.75,314.75c-15.25,0-30.33,0-45.59,0c0-15.26,0-30.33,0-45.59c15.25,0,30.33,0,45.59,0
	C314.75,284.41,314.75,299.49,314.75,314.75z"/>
<path class="st20" d="M102.33,269.16c15.25,0,30.33,0,45.59,0c0,15.25,0,30.33,0,45.59c-15.25,0-30.33,0-45.59,0
	C102.33,299.5,102.33,284.42,102.33,269.16z"/>
<path class="st13" d="M19.42,314.75c0-15.26,0-30.34,0-45.59c15.26,0,30.34,0,45.59,0c0,15.26,0,30.34,0,45.59
	C49.75,314.75,34.67,314.75,19.42,314.75z"/>
<path class="st18" d="M352.07,185.74c15.26,0,30.34,0,45.6,0c0,15.26,0,30.34,0,45.6c-15.26,0-30.34,0-45.6,0
	C352.07,216.08,352.07,201,352.07,185.74z"/>
<path class="st19" d="M269.16,231.33c0-15.26,0-30.34,0-45.59c15.26,0,30.34,0,45.59,0c0,15.26,0,30.34,0,45.59
	C299.49,231.33,284.41,231.33,269.16,231.33z"/>
<path class="st16" d="M185.74,231.34c0-15.26,0-30.34,0-45.61c15.26,0,30.34,0,45.6,0c0,15.26,0,30.34,0,45.61
	C216.09,231.34,201,231.34,185.74,231.34z"/>
<path class="st17" d="M102.33,231.34c0-15.26,0-30.34,0-45.6c15.26,0,30.34,0,45.6,0c0,15.26,0,30.34,0,45.6
	C132.67,231.34,117.59,231.34,102.33,231.34z"/>
<path class="st17" d="M19.42,231.34c0-15.25,0-30.33,0-45.6c15.25,0,30.33,0,45.59,0c0,15.25,0,30.33,0,45.6
	C49.76,231.34,34.68,231.34,19.42,231.34z"/>
<path class="st19" d="M314.72,397.7c-15.27,0-30.29,0-45.52,0c0-15.06,0-29.97,0-45.1c15.15,0,30.23,0,45.52,0
	C314.72,367.59,314.72,382.5,314.72,397.7z"/>
<path class="st12" d="M231.34,397.66c-15.26,0-30.34,0-45.59,0c0-15.09,0-30.01,0-45.09c15.26,0,30.34,0,45.59,0
	C231.34,367.67,231.34,382.58,231.34,397.66z"/>
<path class="st13" d="M147.93,397.67c-15.25,0-30.33,0-45.59,0c0-15.09,0-30,0-45.09c15.25,0,30.33,0,45.59,0
	C147.93,367.66,147.93,382.57,147.93,397.67z"/>
<path class="st13" d="M65.01,397.67c-15.26,0-30.34,0-45.6,0c0-15.09,0-30.01,0-45.1c15.26,0,30.34,0,45.6,0
	C65.01,367.66,65.01,382.58,65.01,397.67z"/>
<path class="st14" d="M435.49,435.49c15.25,0,30.33,0,45.59,0c0,15.25,0,30.33,0,45.59c-15.25,0-30.33,0-45.59,0
	C435.49,465.83,435.49,450.75,435.49,435.49z"/>
<path class="st14" d="M435.49,231.33c0-15.26,0-30.34,0-45.59c15.26,0,30.34,0,45.59,0c0,15.26,0,30.34,0,45.59
	C465.82,231.33,450.74,231.33,435.49,231.33z"/>
<path class="st14" d="M481.09,269.23c0,15.14,0,30.16,0,45.44c-15.11,0-30.19,0-45.53,0c0-15.02,0-30.1,0-45.44
	C450.59,269.23,465.67,269.23,481.09,269.23z"/>
</svg>
